# xmcd CD database file
#
# Track frame offsets:
#	150
#	16620
#	28430
#	45032
#	58847
#	75937
#	94502
#	105827
#	116657
#	129320
#	146910
#	161092
#	177867
#	193897
#
# Disc length: 2810 seconds
#
# Revision: 0
# Processed by: cddbd v1.5.2PL0 Copyright (c) Steve Scherf et al.
# Submitted via: CDex 1.50
#
DISCID=ab0af80e
DTITLE=Enya - Only Time - The Collection CD4
DYEAR=2002
DGENRE=New Age
TTITLE0=Only Time
TTITLE1=A Day Without Rain
TTITLE2=Song of The Sandman
TTITLE3=Willows on The Water
TTITLE4=Wild Child
TTITLE5=Flora's Secret
TTITLE6=Fallen Embers
TTITLE7=Tempus Vernum
TTITLE8=Deora Ar Mo Chroi
TTITLE9=One by One
TTITLE10=The First of Autumn
TTITLE11=Lazy Days
TTITLE12=May It Be
TTITLE13=Oiche Chiuin
EXTD=YEAR: 2002
EXTT0=
EXTT1=
EXTT2=
EXTT3=
EXTT4=
EXTT5=
EXTT6=
EXTT7=
EXTT8=
EXTT9=
EXTT10=
EXTT11=
EXTT12=
EXTT13=
PLAYORDER=
